<!-- icon666.com - MILLIONS vector ICONS FREE --><svg id="svg5" viewBox="0 0 8.4666662 8.4666662" xmlns="http://www.w3.org/2000/svg" xmlns:svg="http://www.w3.org/2000/svg"><linearGradient id="linearGradient2739"><stop id="stop2737" offset="0" stop-color="#0ecc24"></stop></linearGradient><linearGradient id="linearGradient2667"><stop id="stop2665" offset="0"></stop></linearGradient><g id="layer1"><path id="path93111" d="m1.4851806 2.1166666a.69126366.69126366 0 0 0 -.69143064.6914306v2.8504718a.69126366.69126366 0 0 0 .69143064.6914307h1.6014525v-4.2333331z" fill="#217844"></path><path id="path93845" d="m3.0868055 2.1166666v4.2333334h2.2930555v-4.2333334z" fill="#d40000"></path><g fill="#fc0"><path id="path93847" d="m5.3800331 2.1166666v4.2333331h1.6014525a.69126366.69126366 0 0 0 .6914306-.6914307v-2.8504718a.69126366.69126366 0 0 0 -.6914306-.6914306z"></path><path id="path104213" d="m4.5643405 4.744401-.3315967-.2371343-.3323035.2361431.1230591-.388646-.327273-.2430669.4076515-.0030646.1300376-.3863671.1288835.3867535.4076408.0042775-.3279972.2420887z" stroke-linecap="round" stroke-linejoin="round" stroke-width=".053"></path></g></g></svg>